<?xml version="1.0" encoding="utf-8"?>
<!-- Generator: Adobe Illustrator 25.2.1, SVG Export Plug-In . SVG Version: 6.00 Build 0)  -->
<svg version="1.1" id="Layer_1" xmlns="http://www.w3.org/2000/svg" xmlns:xlink="http://www.w3.org/1999/xlink" x="0px" y="0px"
	 viewBox="0 0 370.4 40.6" style="enable-background:new 0 0 370.4 40.6;" xml:space="preserve">
<style type="text/css">
	.st0{fill:#00FFFF;}
	.st1{fill:#2EAD14;}
	.st2{fill:#4553DB;}
	.st3{fill:#FFFFFF;}
	.st4{fill:#E54829;}
</style>
<g>
	<path class="st2" d="M0,32.4V0h17l9.9,18.2L37,0h16.3v32.4H41.1V12.2L29.7,32.4h-6.3L12.1,12.2v20.2H0z"/>
	<path class="st2" d="M77.2,33.1H74c-2.9,0-5.4-0.3-7.6-0.8c-2.2-0.5-3.9-1.2-5.2-2c-1.3-0.8-2.3-1.8-3.1-2.9s-1.3-2.2-1.6-3.2
		c-0.3-1-0.4-2.1-0.4-3.2v-0.7c0-1.1,0.1-2.2,0.4-3.2s0.8-2.1,1.5-3.2c0.8-1.1,1.8-2,3-2.8c1.2-0.8,3-1.4,5.2-2
		c2.2-0.5,4.7-0.8,7.6-0.8h3.3C89.1,8.3,95,12.3,95,20.2V21c0,1.2-0.1,2.2-0.3,3.2c-0.2,1-0.7,2-1.4,3.2c-0.7,1.2-1.7,2.1-2.9,2.9
		c-1.2,0.8-2.9,1.4-5.2,2C82.9,32.8,80.3,33.1,77.2,33.1z M75.7,14.9L75.7,14.9c-2.7,0-4.6,0.5-5.7,1.6c-1.1,1.1-1.7,2.4-1.7,3.9
		v0.2c0,1.6,0.6,2.9,1.7,4.1c1.1,1.1,3,1.7,5.7,1.7h0c2.6,0,4.5-0.6,5.6-1.8c1.1-1.2,1.7-2.5,1.7-4v-0.2c0-1.5-0.6-2.8-1.7-3.9
		C80.2,15.5,78.3,14.9,75.7,14.9z"/>
	<path class="st2" d="M122.8,0h11.8v32.4h-11.8V29c-0.3,0.3-0.7,0.6-1.1,1c-0.5,0.3-1.1,0.7-2,1.2c-0.9,0.5-2,0.9-3.5,1.2
		c-1.4,0.3-3,0.5-4.7,0.5h-0.7c-4.8,0-8.4-1.1-10.7-3.4c-2.3-2.2-3.5-5.1-3.5-8.5v-0.9c0-1.6,0.3-3,0.8-4.3c0.5-1.3,1.3-2.5,2.3-3.6
		c1-1.1,2.5-2,4.3-2.6c1.8-0.6,4-1,6.4-1h0.8c4.7,0,8.5,1.1,11.5,3.4V0z M122.8,20.7v-0.2c0-1.4-0.6-2.7-1.9-3.8
		c-1.3-1.1-3.1-1.6-5.4-1.6h-0.2c-2.4,0-4,0.5-5.1,1.5c-1,1-1.5,2.3-1.5,3.9v0.2c0,1.5,0.5,2.8,1.6,3.9c1.1,1.1,2.8,1.7,5,1.7h0.2
		c2.4,0,4.2-0.6,5.4-1.7C122.2,23.4,122.8,22.1,122.8,20.7z"/>
	<path class="st2" d="M159.3,29.3c-2.4,2.4-6,3.6-11,3.6h-0.5c-3.7,0-6.4-0.7-8.2-2.2c-1.8-1.5-2.7-3.2-2.7-5.4v-0.5
		c0-2,0.7-3.6,2.2-4.7c1.5-1.1,3.9-1.8,7.3-2.1l11.3-1c0.9-0.1,1.3-0.5,1.3-1.1c0-0.3-0.1-0.6-0.3-0.9c-0.2-0.2-0.7-0.4-1.5-0.6
		c-0.8-0.2-1.9-0.3-3.4-0.3h-0.2c-1.2,0-2.1,0.1-2.9,0.2c-0.8,0.2-1.3,0.4-1.6,0.7c-0.3,0.3-0.5,0.6-0.6,0.7
		c-0.1,0.2-0.1,0.4-0.2,0.7h-11v-0.3c0-0.8,0.1-1.5,0.2-2c0.1-0.6,0.5-1.3,1.1-2c0.6-0.8,1.4-1.4,2.4-1.9c1-0.5,2.5-0.9,4.4-1.3
		c2-0.4,4.3-0.5,6.9-0.5h2.4c2.8,0,5.2,0.2,7.2,0.5c2,0.3,3.6,0.7,4.6,1.2c1,0.5,1.9,1.1,2.5,1.8c0.6,0.7,1,1.4,1.1,2
		c0.1,0.6,0.2,1.2,0.2,2v8.7c0,0.7,0.3,1,1,1h1.3v6.8h-9.8C160.9,32.4,159.7,31.4,159.3,29.3z M159.1,22.3v-1l-7.8,1.4
		c-1,0.2-1.8,0.4-2.2,0.7c-0.4,0.3-0.7,0.7-0.7,1.3v0c0,0.7,0.3,1.2,0.8,1.7c0.6,0.5,1.5,0.7,2.9,0.7c2.1,0,3.8-0.5,5.1-1.5
		C158.4,24.8,159.1,23.6,159.1,22.3z"/>
	<path class="st2" d="M175,9h11.8v3.3c0.5-0.5,1.1-0.9,1.9-1.4c0.7-0.4,2-1,3.8-1.5c1.8-0.6,3.7-0.8,5.8-0.8h0.9
		c2.6,0,4.8,0.3,6.7,0.9c1.9,0.6,3.3,1.5,4.3,2.6c1,1.1,1.7,2.3,2.2,3.6c0.4,1.3,0.7,2.7,0.7,4.3v0.9c0,1.5-0.2,3-0.7,4.3
		c-0.5,1.4-1.2,2.6-2.3,3.8c-1,1.2-2.5,2.1-4.4,2.8c-1.9,0.7-4.2,1-6.8,1H198c-2,0-3.9-0.2-5.6-0.7c-1.8-0.5-3-0.9-3.7-1.4
		c-0.7-0.4-1.3-0.8-1.8-1.2v11.1H175V9z M186.8,20.6v0.2c0,1.5,0.6,2.8,1.9,3.9c1.2,1.1,3,1.7,5.4,1.7h0.2c2.4,0,4.1-0.6,5.1-1.7
		c1-1.1,1.6-2.4,1.6-3.9v-0.2c0-1.6-0.5-2.9-1.5-3.9c-1-1.1-2.8-1.6-5.2-1.6h-0.2c-2.4,0-4.2,0.5-5.4,1.6
		C187.4,17.7,186.8,19,186.8,20.6z"/>
	<path class="st2" d="M215.6,32.4V0h11.8v13.1c3.1-3.1,7.1-4.6,12-4.6h0.3c2.1,0,3.9,0.3,5.5,0.8c1.6,0.6,2.8,1.3,3.6,2.2
		c0.8,0.9,1.5,1.9,1.9,2.8c0.4,1,0.6,2,0.6,3v15.1h-11.9V21.2c0-1.7-0.5-3-1.4-3.9c-0.9-1-2.3-1.5-4.3-1.5c-1.9,0-3.5,0.5-4.6,1.6
		c-1.1,1-1.7,2.4-1.7,4.1v10.9H215.6z"/>
	<path class="st2" d="M274.8,33.1h-3.2c-2.9,0-5.4-0.3-7.6-0.8c-2.2-0.5-3.9-1.2-5.2-2c-1.3-0.8-2.3-1.8-3.1-2.9
		c-0.8-1.1-1.3-2.2-1.6-3.2c-0.3-1-0.4-2.1-0.4-3.2v-0.7c0-1.1,0.1-2.2,0.4-3.2s0.8-2.1,1.5-3.2c0.8-1.1,1.8-2,3-2.8
		c1.2-0.8,3-1.4,5.2-2c2.2-0.5,4.7-0.8,7.6-0.8h3.3c11.8,0,17.7,3.9,17.7,11.8V21c0,1.2-0.1,2.2-0.3,3.2c-0.2,1-0.7,2-1.4,3.2
		c-0.7,1.2-1.7,2.1-2.9,2.9c-1.2,0.8-2.9,1.4-5.2,2C280.4,32.8,277.8,33.1,274.8,33.1z M273.2,14.9L273.2,14.9
		c-2.7,0-4.6,0.5-5.7,1.6c-1.1,1.1-1.7,2.4-1.7,3.9v0.2c0,1.6,0.6,2.9,1.7,4.1c1.1,1.1,3,1.7,5.7,1.7h0c2.6,0,4.5-0.6,5.6-1.8
		c1.1-1.2,1.7-2.5,1.7-4v-0.2c0-1.5-0.6-2.8-1.7-3.9C277.7,15.5,275.9,14.9,273.2,14.9z"/>
	<path class="st2" d="M295.1,32.4V9h11.8v4.1c0.4-0.4,0.8-0.7,1-0.9c0.2-0.2,0.8-0.6,1.6-1.2c0.8-0.6,1.6-1,2.4-1.3
		c0.8-0.3,1.8-0.6,3.1-0.9c1.3-0.3,2.6-0.4,4-0.4h0.3c2.1,0,3.9,0.3,5.5,0.8c1.6,0.6,2.8,1.3,3.6,2.2c0.8,0.9,1.5,1.9,1.9,2.8
		c0.4,1,0.6,2,0.6,3v15.1h-11.9V21.2c0-1.7-0.5-3-1.4-3.9c-0.9-1-2.3-1.5-4.3-1.5c-1.9,0-3.5,0.5-4.6,1.6c-1.1,1-1.7,2.4-1.7,4.1
		v10.9H295.1z"/>
	<path class="st2" d="M370.3,23.9L370.3,23.9c0,0.9-0.1,1.6-0.3,2.3c-0.2,0.7-0.7,1.5-1.4,2.4c-0.7,0.9-1.7,1.6-2.9,2.3
		c-1.2,0.6-2.9,1.2-5.1,1.6c-2.2,0.4-4.7,0.7-7.6,0.7h-2.3c-2.8,0-5.2-0.2-7.3-0.7c-2.1-0.5-3.8-1.1-5.1-1.9c-1.2-0.8-2.3-1.7-3-2.8
		c-0.8-1.1-1.3-2.2-1.6-3.2c-0.3-1.1-0.4-2.2-0.4-3.4v-0.9c0-7.9,5.8-11.8,17.3-11.8h2.4c2.1,0,4,0.1,5.8,0.4
		c1.7,0.3,3.2,0.6,4.4,1.1c1.2,0.5,2.2,1,3.1,1.7c0.9,0.7,1.6,1.4,2.1,2.1c0.5,0.7,0.9,1.5,1.3,2.4c0.3,0.9,0.5,1.7,0.6,2.5
		c0.1,0.8,0.2,1.6,0.2,2.5v1.3h-25.5c0.4,2.9,2.8,4.3,7.1,4.3h0c1,0,2-0.1,2.8-0.3c0.8-0.2,1.5-0.4,1.9-0.6c0.4-0.2,0.8-0.5,1.1-0.8
		c0.3-0.3,0.5-0.5,0.6-0.7c0.1-0.2,0.1-0.4,0.2-0.5H370.3z M351.8,14.1c-3.9,0-6.1,1.2-6.8,3.5h13.5C358,15.2,355.8,14.1,351.8,14.1
		z"/>
</g>
</svg>
