<?xml version="1.0" encoding="utf-8"?>
<!-- Generator: Adobe Illustrator 25.2.1, SVG Export Plug-In . SVG Version: 6.00 Build 0)  -->
<svg version="1.1" id="Layer_1" xmlns="http://www.w3.org/2000/svg" xmlns:xlink="http://www.w3.org/1999/xlink" x="0px" y="0px"
	 viewBox="0 0 229.8 59.9" style="enable-background:new 0 0 229.8 59.9;" xml:space="preserve">
<style type="text/css">
	.st0{fill:#00FFFF;}
	.st1{fill:#2EAD14;}
	.st2{fill:#4553DB;}
	.st3{fill:#FFFFFF;}
	.st4{fill:#E54829;}
</style>
<g>
	<path class="st1" d="M0,0v59.9h34.3V0H0z M29.7,55.3h-6.4L12.8,26.6h-0.1v28.7H5.8V7.6h6.6l10.3,28.7h0.1V7.6h6.8V55.3z"/>
	<path class="st1" d="M57.2,40.9H43.6v4.6c0,1.1,0.3,1.9,0.9,2.5c0.6,0.6,1.4,0.9,2.4,0.9c1.3,0,2.2-0.4,2.6-1.1
		c0.4-0.8,0.7-1.5,0.8-2.3h6.8c0,3-0.9,5.4-2.7,7.2c-0.9,0.9-2,1.7-3.2,2.2c-1.3,0.5-2.7,0.8-4.2,0.8c-2.1,0-4-0.4-5.5-1.3
		c-1.5-0.9-2.6-2.1-3.5-3.6c-0.5-0.9-0.8-1.9-1-3.1c-0.2-1.2-0.3-2.4-0.3-3.8V32.7c0-1.4,0.1-2.7,0.3-3.8c0.2-1.2,0.5-2.2,1-3.1
		c0.8-1.5,2-2.7,3.5-3.6c1.5-0.9,3.3-1.3,5.5-1.3c1.6,0,3,0.3,4.3,0.8s2.4,1.3,3.2,2.2c1.8,2,2.7,4.5,2.7,7.6V40.9z M43.6,35.6h6.7
		v-3.9c0-1.3-0.3-2.3-0.9-2.9c-0.6-0.6-1.4-1-2.4-1c-1,0-1.8,0.3-2.4,1c-0.6,0.6-0.9,1.6-0.9,2.9V35.6z"/>
	<path class="st1" d="M62.2,21.3V11H69v10.3h4.2v5.4H69v18.8c0,0.8,0.1,1.4,0.2,1.9c0.2,0.4,0.4,0.8,0.8,1c0.4,0.2,0.8,0.4,1.3,0.4
		c0.5,0,1.1,0.1,1.9,0.1v6.4h-2.8c-1.6,0-2.9-0.2-3.9-0.7c-1.1-0.5-1.9-1.1-2.5-1.9c-0.6-0.8-1.1-1.6-1.4-2.6
		c-0.3-1-0.4-1.9-0.4-2.8V26.7h-3.4v-5.4H62.2z"/>
	<path class="st1" d="M108.9,21.3l-8,34h-6l-3.8-20.2h-0.1l-3.8,20.2h-6l-8-34h7.2l4.2,21.1h0.1l3.8-21.1h5.4l3.6,21.1h0.1l4.1-21.1
		H108.9z"/>
	<path class="st1" d="M110.8,32.7c0-1.4,0.1-2.7,0.3-3.8c0.2-1.2,0.5-2.2,1-3.1c0.8-1.5,2-2.7,3.5-3.6c1.5-0.9,3.3-1.3,5.5-1.3
		s4,0.4,5.5,1.3c1.5,0.9,2.6,2.1,3.5,3.6c0.5,0.9,0.8,1.9,1,3.1c0.2,1.2,0.3,2.4,0.3,3.8v11.2c0,1.4-0.1,2.7-0.3,3.8
		c-0.2,1.2-0.5,2.2-1,3.1c-0.8,1.5-2,2.7-3.5,3.6c-1.5,0.9-3.3,1.3-5.5,1.3s-4-0.4-5.5-1.3c-1.5-0.9-2.6-2.1-3.5-3.6
		c-0.5-0.9-0.8-1.9-1-3.1c-0.2-1.2-0.3-2.4-0.3-3.8V32.7z M117.6,45c0,1.3,0.3,2.3,0.9,2.9c0.6,0.6,1.4,1,2.4,1c1,0,1.8-0.3,2.4-1
		c0.6-0.6,0.9-1.6,0.9-2.9V31.7c0-1.3-0.3-2.3-0.9-2.9c-0.6-0.6-1.4-1-2.4-1c-1,0-1.8,0.3-2.4,1c-0.6,0.6-0.9,1.6-0.9,2.9V45z"/>
	<path class="st1" d="M136.2,55.3v-34h6.8V25c1.4-1.2,2.7-2.2,4.1-2.9c1.3-0.7,3-1.1,5-1.1v7.2c-0.7-0.3-1.4-0.4-2.1-0.4
		c-0.7,0-1.5,0.1-2.3,0.4c-0.8,0.2-1.6,0.7-2.2,1.2c-0.7,0.6-1.3,1.3-1.7,2.3c-0.4,0.9-0.7,2.1-0.7,3.5v20.2H136.2z"/>
	<path class="st1" d="M154.8,55.3V7.6h6.8v28.5h0.1l8.2-14.8h6.8l-8.1,13.8l9.8,20.2h-7.4l-6.2-14.7l-3.3,5.2v9.5H154.8z"/>
	<path class="st1" d="M180.9,18.9c0-1.9,0.3-3.6,1-5.1s1.6-2.7,2.7-3.7c1.1-0.9,2.3-1.7,3.7-2.1c1.4-0.5,2.7-0.7,4.1-0.7
		c1.4,0,2.8,0.2,4.1,0.7c1.4,0.5,2.6,1.2,3.7,2.1c1.1,1,1.9,2.2,2.6,3.7s1,3.2,1,5.1v25.2c0,2-0.3,3.7-1,5.2
		c-0.7,1.4-1.5,2.6-2.6,3.6c-1.1,1-2.4,1.7-3.7,2.2c-1.4,0.5-2.7,0.7-4.1,0.7c-1.4,0-2.8-0.2-4.1-0.7c-1.4-0.5-2.6-1.2-3.7-2.2
		c-1.1-0.9-2-2.1-2.7-3.6c-0.7-1.4-1-3.1-1-5.2V18.9z M187.7,44.1c0,1.7,0.5,2.9,1.4,3.7c0.9,0.8,2,1.2,3.2,1.2
		c1.2,0,2.3-0.4,3.2-1.2c0.9-0.8,1.4-2,1.4-3.7V18.9c0-1.7-0.5-2.9-1.4-3.7c-0.9-0.8-2-1.2-3.2-1.2c-1.3,0-2.3,0.4-3.2,1.2
		c-0.9,0.8-1.4,2-1.4,3.7V44.1z"/>
	<path class="st1" d="M209.4,55.3v-34h6.8v3.3h0.1c0.7-1.1,1.6-2,2.6-2.6c1-0.7,2.3-1,3.9-1c0.8,0,1.7,0.1,2.5,0.4
		c0.8,0.3,1.6,0.8,2.3,1.4s1.2,1.5,1.6,2.6c0.4,1,0.6,2.3,0.6,3.9v26.1H223V31.8c0-1.2-0.3-2.2-0.9-2.9c-0.6-0.7-1.4-1.1-2.5-1.1
		c-1.3,0-2.2,0.4-2.7,1.2c-0.5,0.8-0.7,2-0.7,3.5v22.8H209.4z"/>
</g>
</svg>
