<svg xmlns="http://www.w3.org/2000/svg" viewBox="0 0 344.12 329.41"><defs><style>.a{fill:#fff;}</style></defs><rect width="344.12" height="329.41"/><path class="a" d="M840.32,541.32l29,13.78a10.5,10.5,0,0,1,3.43,2.29,4.06,4.06,0,0,1,1,2.75,4.1,4.1,0,0,1-1.16,3,4.19,4.19,0,0,1-3.08,1.16,6.51,6.51,0,0,1-1.76-.27,16.59,16.59,0,0,1-2.34-.89L830.28,547c-.18-.09-.46-.21-.85-.36q-4.73-2.18-4.72-5.13t4.95-5.26L830,536l35.42-16.5a20.38,20.38,0,0,1,2.63-1,5.51,5.51,0,0,1,1.47-.25,4.19,4.19,0,0,1,3.08,1.16,4.45,4.45,0,0,1,.15,5.82,10.3,10.3,0,0,1-3.41,2.34Z" transform="translate(-787.94 -375.29)"/><path class="a" d="M923.18,514l-26.13,56a13.26,13.26,0,0,1-2.23,3.66,3.33,3.33,0,0,1-2.41,1,5.57,5.57,0,0,1-3.64-1.3,4,4,0,0,1-1.58-3.21,11.43,11.43,0,0,1,1.2-4l.09-.18,26.09-55.88a13.73,13.73,0,0,1,2.28-3.75,3.32,3.32,0,0,1,2.41-1,5.56,5.56,0,0,1,3.61,1.3,4,4,0,0,1,1.61,3.21,5.82,5.82,0,0,1-.27,1.69A18.89,18.89,0,0,1,923.18,514Z" transform="translate(-787.94 -375.29)"/><path class="a" d="M971.13,545.15a7.45,7.45,0,0,1,2.27,2.59l.31.44L981,559.69h1.39a5.57,5.57,0,0,1,3.9,1.21,4.63,4.63,0,0,1,1.32,3.61,4.81,4.81,0,0,1-1.32,3.79,6.57,6.57,0,0,1-4.35,1.16h-5.48a5.33,5.33,0,0,1-4.73-2.63l-.14-.09-10.92-16.82a4.88,4.88,0,0,0-1.43-1.49,3.13,3.13,0,0,0-1.7-.51h-4.19v11.77h.72a4.92,4.92,0,0,1,3.63,1.23,4.85,4.85,0,0,1,1.23,3.59,5,5,0,0,1-1.27,3.79c-.85.77-2.29,1.16-4.31,1.16h-11.5a6.4,6.4,0,0,1-4.29-1.16,4.9,4.9,0,0,1,3.53-8.61h.76V526.42h-.76a4.76,4.76,0,0,1-3.57-1.27,5,5,0,0,1-1.25-3.64,4.84,4.84,0,0,1,1.32-3.77,6.3,6.3,0,0,1,4.26-1.18h20.56q9.45,0,14.31,3.68t4.86,10.86a14.2,14.2,0,0,1-2.69,8.65A15.62,15.62,0,0,1,971.13,545.15Zm-18.33-19v12.62h6c3.71,0,6.32-.48,7.8-1.45s2.23-2.58,2.23-4.84-.67-3.84-2-4.83-3.53-1.5-6.53-1.5Z" transform="translate(-787.94 -375.29)"/><path class="a" d="M1028.8,518a6.84,6.84,0,0,1,1.82-2.27,4,4,0,0,1,2.37-.67,3.74,3.74,0,0,1,3.1,1.16,6.55,6.55,0,0,1,.91,4l.09,11.6c0,2-.33,3.43-1,4.14s-1.88,1.07-3.64,1.07a4.15,4.15,0,0,1-2.87-.89,7.15,7.15,0,0,1-1.72-3.31,10.74,10.74,0,0,0-3.7-6.11,11.76,11.76,0,0,0-7.05-1.86q-6.87,0-10.53,4.64t-3.65,13.44q0,8.76,3.7,13.44t10.57,4.69a21.65,21.65,0,0,0,10.32-3.12q5.65-3.12,7.12-3.12a3.61,3.61,0,0,1,2.92,1.47,5.64,5.64,0,0,1,1.18,3.66q0,3.93-6.91,7.4a34.15,34.15,0,0,1-15.57,3.48q-11.68,0-18.91-7.71T990.13,543q0-12,7.31-19.94a24.15,24.15,0,0,1,18.56-7.94,27.84,27.84,0,0,1,6.24.71A38.56,38.56,0,0,1,1028.8,518Z" transform="translate(-787.94 -375.29)"/><path class="a" d="M1079.77,541.32l-29.08-13.79a10.45,10.45,0,0,1-3.36-2.34,4.14,4.14,0,0,1-1-2.78,4.19,4.19,0,0,1,1.12-3,4,4,0,0,1,3-1.16,5.81,5.81,0,0,1,1.62.27,22,22,0,0,1,2.61,1L1090,536l.35.22q5,2.28,5,5.26t-4.77,5.13a3.92,3.92,0,0,1-.71.36l-35.28,16.19a15.06,15.06,0,0,1-2.3.89,6.67,6.67,0,0,1-1.8.27,4,4,0,0,1-3-1.14,4.57,4.57,0,0,1-.16-5.8,10.37,10.37,0,0,1,3.41-2.29Z" transform="translate(-787.94 -375.29)"/></svg>