<svg xmlns="http://www.w3.org/2000/svg" viewBox="0 0 270.59 69.35"><defs><style>.a{fill:#fff;}</style></defs><path class="a" d="M15.61,36l29,13.78a10.67,10.67,0,0,1,3.44,2.3,4.07,4.07,0,0,1,1,2.74A4,4,0,0,1,44.82,59a6.56,6.56,0,0,1-1.76-.27,17.93,17.93,0,0,1-2.34-.89L5.58,41.66c-.18-.09-.47-.21-.85-.36Q0,39.11,0,36.17c0-2,1.65-3.75,5-5.26l.36-.23,35.41-16.5a25.59,25.59,0,0,1,2.63-1,5.57,5.57,0,0,1,1.47-.24,4.17,4.17,0,0,1,3.08,1.16,4.1,4.1,0,0,1,1.16,3,4.17,4.17,0,0,1-1,2.79,10.36,10.36,0,0,1-3.42,2.34Z"/><path class="a" d="M98.48,8.7l-26.14,56a13.09,13.09,0,0,1-2.23,3.66,3.31,3.31,0,0,1-2.41,1,5.58,5.58,0,0,1-3.63-1.29,4,4,0,0,1-1.59-3.21,11.6,11.6,0,0,1,1.21-4l.09-.17L89.87,4.77A13.57,13.57,0,0,1,92.14,1a3.29,3.29,0,0,1,2.41-1,5.61,5.61,0,0,1,3.61,1.29A4,4,0,0,1,99.77,4.5a5.89,5.89,0,0,1-.27,1.7A20.64,20.64,0,0,1,98.48,8.7Z"/><path class="a" d="M146.42,39.83a7.52,7.52,0,0,1,2.28,2.58c.11.18.22.33.31.45l7.27,11.51h1.38a5.6,5.6,0,0,1,3.9,1.2,4.65,4.65,0,0,1,1.32,3.61,4.84,4.84,0,0,1-1.32,3.8c-.87.77-2.32,1.15-4.34,1.15h-5.49A5.32,5.32,0,0,1,147,61.5l-.13-.09L135.94,44.6a4.76,4.76,0,0,0-1.43-1.49,3,3,0,0,0-1.69-.52h-4.19V54.37h.71A4.93,4.93,0,0,1,133,55.59a4.87,4.87,0,0,1,1.23,3.59,4.93,4.93,0,0,1-1.27,3.8c-.85.77-2.28,1.15-4.3,1.15H117.12c-2,0-3.42-.38-4.28-1.15a4.9,4.9,0,0,1-1.3-3.8,4.3,4.3,0,0,1,4.82-4.81h.76V21.1h-.76a4.8,4.8,0,0,1-3.57-1.28,5,5,0,0,1-1.25-3.63,4.84,4.84,0,0,1,1.32-3.77,6.29,6.29,0,0,1,4.26-1.18h20.56q9.45,0,14.32,3.68t4.86,10.86a14.16,14.16,0,0,1-2.7,8.65A15.62,15.62,0,0,1,146.42,39.83Zm-18.33-19V33.45h6q5.58,0,7.81-1.45c1.48-1,2.23-2.58,2.23-4.84s-.68-3.84-2-4.84-3.53-1.49-6.54-1.49Z"/><path class="a" d="M204.09,12.71a6.63,6.63,0,0,1,1.83-2.27,3.92,3.92,0,0,1,2.36-.67,3.7,3.7,0,0,1,3.1,1.16,6.52,6.52,0,0,1,.92,4l.09,11.59c0,2.05-.34,3.44-1,4.15s-1.88,1.07-3.63,1.07a4.22,4.22,0,0,1-2.88-.89,7.29,7.29,0,0,1-1.72-3.32,10.72,10.72,0,0,0-3.7-6.11,11.72,11.72,0,0,0-7-1.86q-6.85,0-10.52,4.65c-2.44,3.09-3.66,7.58-3.66,13.44s1.23,10.32,3.7,13.44,6,4.69,10.57,4.69a21.65,21.65,0,0,0,10.33-3.12q5.64-3.12,7.11-3.12A3.6,3.6,0,0,1,212.85,51,5.65,5.65,0,0,1,214,54.64q0,3.91-6.92,7.4a34.11,34.11,0,0,1-15.56,3.48q-11.69,0-18.91-7.72t-7.23-20.16q0-12,7.32-19.93a24.09,24.09,0,0,1,18.55-7.94,27.84,27.84,0,0,1,6.24.71A38.27,38.27,0,0,1,204.09,12.71Z"/><path class="a" d="M255.07,36,226,22.21a10.39,10.39,0,0,1-3.37-2.34,4.17,4.17,0,0,1-1-2.79,4.19,4.19,0,0,1,1.11-3,4,4,0,0,1,3-1.16,5.82,5.82,0,0,1,1.63.27,23.46,23.46,0,0,1,2.61,1l35.32,16.5.36.23c3.3,1.51,4.95,3.27,4.95,5.26s-1.59,3.7-4.77,5.13a3.94,3.94,0,0,1-.72.36L229.82,57.85a16.12,16.12,0,0,1-2.29.89,6.73,6.73,0,0,1-1.81.27,4,4,0,0,1-3-1.14,4.2,4.2,0,0,1-1.11-3.06,4.11,4.11,0,0,1,1-2.74,10.26,10.26,0,0,1,3.41-2.3Z"/></svg>