<?xml version="1.0" encoding="utf-8"?>
<!-- Generator: Adobe Illustrator 25.2.1, SVG Export Plug-In . SVG Version: 6.00 Build 0)  -->
<svg version="1.1" id="Layer_1" xmlns="http://www.w3.org/2000/svg" xmlns:xlink="http://www.w3.org/1999/xlink" x="0px" y="0px"
	 viewBox="0 0 406.8 38.9" style="enable-background:new 0 0 406.8 38.9;" xml:space="preserve">
<style type="text/css">
	.st0{fill:#00FFFF;}
	.st1{fill:#2EAD14;}
	.st2{fill:#4553DB;}
	.st3{fill:#FFFFFF;}
	.st4{fill:#E54829;}
</style>
<g>
	<path class="st3" d="M0.1,0.8h33.1l0.1,11.1h-1.6c-0.5-4-2-6.7-4.5-8.1c-1.4-0.8-3.4-1.2-6.2-1.3v29c0,2,0.4,3.4,1.1,4
		c0.7,0.7,2.2,1,4.4,1V38H6.9v-1.4c2.1,0,3.6-0.3,4.3-1c0.7-0.7,1.1-2,1.1-4v-29C9.5,2.7,7.5,3.1,6,3.9C3.4,5.3,1.9,8,1.6,11.9H0
		L0.1,0.8z"/>
	<path class="st3" d="M36.2,36.7c1-0.1,1.7-0.4,2.2-0.8c0.5-0.4,0.7-1.3,0.7-2.5v-28c0-1.1-0.2-1.9-0.6-2.3
		c-0.4-0.4-1.2-0.7-2.3-0.9V0.8h10.6v15.5c1.1-1.4,2.3-2.4,3.6-3.2c1.2-0.7,2.6-1.1,4.2-1.1c2.1,0,3.9,0.6,5.2,1.8
		c1.4,1.2,2.1,3.3,2.1,6.3v13.2c0,1.2,0.2,2,0.6,2.4c0.4,0.4,1.1,0.7,2.1,0.9V38H51.7v-1.3c1-0.2,1.7-0.5,2-0.8
		c0.4-0.3,0.5-1.1,0.5-2.3V20.2c0-1.3-0.1-2.2-0.4-2.8c-0.4-1.1-1.3-1.7-2.6-1.7c-0.9,0-1.9,0.4-2.9,1.3c-1,0.9-1.5,1.5-1.5,1.8
		v14.7c0,1.2,0.2,2,0.5,2.3c0.4,0.3,1,0.6,2,0.8V38H36.2V36.7z"/>
	<path class="st3" d="M70.5,15.5c2.2-2.3,5-3.5,8.1-3.5c1.8,0,3.5,0.5,5.1,1.4s2.8,2.3,3.7,3.9c0.6,1.3,1.1,2.9,1.3,4.9
		c0.1,0.9,0.2,1.7,0.2,2.2h-14c0.1,2.2,0.5,4.1,1.1,5.7c1.1,3,3,4.5,5.7,4.5c1.3,0,2.5-0.4,3.7-1.2c0.7-0.5,1.6-1.3,2.6-2.4l1.3,0.8
		c-1.7,2.8-3.7,4.7-5.9,5.8c-1.5,0.7-3.1,1-5,1c-2.7,0-5.2-1.1-7.6-3.2s-3.5-5.5-3.5-10.2C67.1,21.2,68.2,17.9,70.5,15.5z
		 M82.2,22.5c0-3.2-0.3-5.5-0.8-6.8s-1.4-1.9-2.8-1.9c-1.4,0-2.4,0.7-3,2.2s-0.8,3.7-0.9,6.5H82.2z"/>
	<path class="st3" d="M120.3,0.8v1.3c-1.3,0.1-2.2,0.3-2.7,0.6c-0.5,0.3-0.7,0.8-0.7,1.7c0,0.2,0,0.5,0.1,0.8s0.1,0.6,0.2,1
		l6.7,19.3h0.1l6.3-16.1c0-0.1-0.2-0.9-0.8-2.5c-0.5-1.5-0.9-2.5-1.1-2.9c-0.4-0.6-0.9-1.1-1.4-1.4c-0.5-0.3-1.4-0.4-2.7-0.5V0.8
		h17.2v1.3c-1.6,0.1-2.6,0.3-3.2,0.5c-0.5,0.2-0.8,0.7-0.8,1.5c0,0.2,0.1,0.5,0.2,1c0.1,0.5,0.3,1.2,0.6,2.1l6.3,17.7h-0.2l6-18.1
		c0.1-0.3,0.2-0.7,0.3-1c0.1-0.4,0.1-0.8,0.1-1.2c0-1-0.4-1.7-1.2-2c-0.5-0.2-1.4-0.4-2.7-0.4V0.8h10.1v1.3c-0.8,0.1-1.5,0.3-2,0.6
		c-0.8,0.6-1.4,1.5-1.9,2.9l-11,33.2h-1.5l-9.2-25.8h-0.4l-10.1,25.8h-1.5L107.9,5.7c-0.5-1.4-1-2.3-1.5-2.7
		c-0.5-0.4-1.3-0.7-2.3-0.8V0.8H120.3z"/>
	<path class="st3" d="M159.8,15.8c2.4-2.6,5.3-3.8,8.9-3.8c3.6,0,6.6,1.3,8.9,3.9c2.3,2.6,3.5,5.8,3.5,9.5c0,3.7-1.1,6.8-3.4,9.5
		c-2.3,2.6-5.3,4-9,4c-3.6,0-6.5-1.3-8.9-3.9c-2.3-2.6-3.5-5.8-3.5-9.6C156.3,21.6,157.4,18.4,159.8,15.8z M164.9,33.5
		c0.6,2.4,1.9,3.6,3.7,3.6c1.8,0,2.9-0.9,3.5-2.7c0.6-1.8,0.8-4.8,0.8-8.9c0-4.1-0.3-7.1-0.9-8.9c-0.6-1.8-1.7-2.8-3.4-2.8
		c-1.9,0-3.1,1.2-3.7,3.6c-0.4,1.6-0.6,4.3-0.6,8.1C164.4,29.3,164.6,31.9,164.9,33.5z"/>
	<path class="st3" d="M183.6,36.7c1.1-0.1,1.8-0.4,2.2-0.8c0.4-0.4,0.6-1.1,0.7-2.2l0.1-1.6v-15c0-1.2-0.2-1.9-0.6-2.4
		c-0.4-0.4-1.2-0.7-2.3-0.8v-1.3H194V17c1.2-1.5,2.3-2.7,3.5-3.6c1.1-0.9,2.5-1.3,4-1.3c1.1,0,2.1,0.4,3.1,1.1
		c0.9,0.7,1.4,1.8,1.4,3.2c0,1.1-0.3,2-1,2.7c-0.6,0.7-1.5,1-2.5,1c-1.2,0-2.2-0.5-3-1.6c-0.9-1.1-1.4-1.6-1.8-1.6
		c-0.7,0-1.5,0.5-2.2,1.4c-0.7,0.9-1.1,2.2-1.1,3.9v10.4c0,1.8,0.3,2.9,0.8,3.4c0.5,0.5,1.6,0.8,3.2,0.9V38h-14.6V36.7z"/>
	<path class="st3" d="M207.9,36.7c1-0.2,1.7-0.5,2.1-0.9c0.4-0.4,0.6-1.2,0.6-2.4v-28c0-1.2-0.2-1.9-0.6-2.3
		c-0.4-0.4-1.1-0.7-2.1-0.9V0.8h10.4v32.5c0,1.2,0.2,2,0.6,2.4c0.4,0.4,1.1,0.7,2.1,0.9V38h-13.1V36.7z"/>
	<path class="st3" d="M226.8,15.8c2.1-2.5,4.6-3.8,7.5-3.8c1.5,0,2.7,0.4,3.9,1.1c0.7,0.4,1.6,1.2,2.6,2.3V5.3
		c0-1.4-0.3-2.3-0.8-2.6s-1.6-0.5-3.3-0.6V0.8h11.8v31.7c0,1.1,0.2,1.9,0.6,2.4s1.3,0.7,2.5,0.8v1.3c-3.1,0.3-5.1,0.5-6,0.7
		c-0.9,0.2-2.5,0.5-4.7,1.2v-3.6c-1,1.1-2,1.9-2.8,2.4c-1.4,0.8-2.8,1.2-4.4,1.2c-2.7,0-5-1.1-7-3.4s-3-5.4-3-9.3
		C223.7,21.8,224.7,18.3,226.8,15.8z M239.3,34.1c0.9-1.1,1.4-1.8,1.4-2.2V18.5c0-0.4-0.4-1.1-1.2-2c-0.8-0.9-1.9-1.3-3.2-1.3
		c-2,0-3.3,1.4-4,4.1c-0.4,1.4-0.6,3.5-0.6,6.1c0,2.8,0.2,5,0.5,6.4c0.7,2.6,1.9,3.9,3.8,3.9C237.3,35.7,238.3,35.1,239.3,34.1z"/>
	<path class="st3" d="M267.1,0.8h33.1l0.1,11.1h-1.6c-0.5-4-2-6.7-4.5-8.1c-1.4-0.8-3.4-1.2-6.2-1.3v29c0,2,0.4,3.4,1.1,4
		c0.7,0.7,2.2,1,4.4,1V38h-19.6v-1.4c2.1,0,3.6-0.3,4.3-1c0.7-0.7,1.1-2,1.1-4v-29c-2.7,0.1-4.7,0.5-6.2,1.3
		c-2.6,1.4-4.1,4.1-4.5,8.1H267L267.1,0.8z"/>
	<path class="st3" d="M302.2,36.7c1-0.2,1.6-0.4,2-0.7c0.5-0.5,0.8-1.4,0.8-2.6V17.2c0-1.1-0.2-1.9-0.6-2.3s-1.1-0.7-2.2-0.9v-1.3
		h10.6v20.9c0,1.2,0.2,2,0.5,2.3c0.4,0.3,1,0.6,2,0.8V38h-13.1V36.7z M305.9,1.2c0.8-0.8,1.8-1.2,3-1.2c1.2,0,2.2,0.4,3,1.2
		c0.8,0.8,1.2,1.8,1.2,3s-0.4,2.2-1.2,3c-0.8,0.8-1.8,1.2-3,1.2c-1.2,0-2.2-0.4-3-1.2c-0.8-0.8-1.2-1.8-1.2-3S305.1,2.1,305.9,1.2z"
		/>
	<path class="st3" d="M317.5,36.7c1-0.1,1.7-0.3,2.1-0.6c0.6-0.5,0.9-1.4,0.9-2.7V17.2c0-1.2-0.2-1.9-0.6-2.4
		c-0.4-0.4-1.2-0.7-2.4-0.8v-1.3h10.4v3.9c0.9-1.2,1.8-2.1,2.7-2.8c1.6-1.2,3.4-1.8,5.3-1.8c2.2,0,3.9,0.5,5.1,1.6
		c0.7,0.6,1.3,1.6,1.9,2.9h0.4c1-1.3,2-2.2,3-2.9c1.5-1.1,3.1-1.6,4.9-1.6c1.9,0,3.6,0.6,5.1,1.9c1.5,1.2,2.2,3.2,2.2,5.9v13.8
		c0,1.3,0.2,2.1,0.6,2.4c0.4,0.3,1.1,0.6,2.2,0.7V38h-13.1v-1.3c1-0.1,1.7-0.4,2.1-0.7c0.4-0.3,0.6-1.1,0.6-2.4V20.2
		c0-1.4-0.2-2.5-0.6-3.3c-0.4-0.8-1.2-1.2-2.4-1.2c-0.9,0-1.9,0.4-3,1.3c-1,0.9-1.6,1.5-1.6,1.8v14.7c0,1.2,0.2,2,0.5,2.3
		c0.4,0.3,1,0.6,2,0.8V38h-12.9v-1.3c1-0.1,1.7-0.4,2.1-0.7c0.4-0.3,0.6-1.2,0.6-2.4V20.2c0-1.4-0.2-2.5-0.6-3.3
		c-0.4-0.8-1.2-1.2-2.4-1.2c-1.1,0-2.2,0.5-3.1,1.4s-1.5,1.5-1.5,1.7v14.7c0,1.2,0.2,2,0.5,2.3c0.3,0.3,1,0.6,2,0.8V38h-13.2V36.7z"
		/>
	<path class="st3" d="M367,15.5c2.2-2.3,5-3.5,8.1-3.5c1.8,0,3.5,0.5,5.1,1.4s2.8,2.3,3.7,3.9c0.6,1.3,1.1,2.9,1.3,4.9
		c0.1,0.9,0.2,1.7,0.2,2.2h-14c0.1,2.2,0.5,4.1,1.1,5.7c1.1,3,3,4.5,5.7,4.5c1.3,0,2.5-0.4,3.7-1.2c0.7-0.5,1.6-1.3,2.6-2.4l1.3,0.8
		c-1.7,2.8-3.7,4.7-5.9,5.8c-1.5,0.7-3.1,1-5,1c-2.7,0-5.2-1.1-7.6-3.2s-3.5-5.5-3.5-10.2C363.6,21.2,364.8,17.9,367,15.5z
		 M378.7,22.5c0-3.2-0.3-5.5-0.8-6.8s-1.4-1.9-2.8-1.9c-1.4,0-2.4,0.7-3,2.2s-0.8,3.7-0.9,6.5H378.7z"/>
	<path class="st3" d="M388.2,29.7h1.5c0.5,2.6,1.5,4.5,3,5.6c1.5,1.1,3,1.6,4.5,1.6c1.4,0,2.5-0.3,3.1-1c0.7-0.6,1-1.5,1-2.5
		c0-1-0.4-1.8-1.1-2.5c-0.4-0.4-1-0.8-1.9-1.2l-4.1-2c-2.1-1.1-3.7-2.2-4.6-3.4c-0.9-1.2-1.4-2.7-1.4-4.4c0-2.1,0.7-4,2.2-5.5
		c1.5-1.5,3.6-2.3,6.2-2.3c1.2,0,2.4,0.2,3.7,0.6c1.3,0.4,2.1,0.6,2.4,0.6c0.4,0,0.8-0.1,1-0.3c0.2-0.2,0.3-0.5,0.5-0.8h1.2v7.9
		h-1.4c-0.5-1.9-1.4-3.4-2.6-4.5c-1.2-1.1-2.6-1.7-4.1-1.7c-1.2,0-2.1,0.3-2.7,1c-0.6,0.7-0.9,1.4-0.9,2.2c0,0.6,0.3,1.3,0.8,1.9
		c0.5,0.7,1.5,1.3,3,2l3,1.5c1.9,0.9,3.2,1.8,4.1,2.6c1.4,1.4,2.1,3.2,2.1,5.3c0,2-0.7,3.9-2.2,5.7c-1.5,1.8-3.7,2.6-6.6,2.6
		c-0.7,0-1.5-0.1-2.2-0.2c-0.7-0.2-1.7-0.4-2.8-0.8l-0.9-0.3c-0.3-0.1-0.6-0.2-0.6-0.2c-0.1,0-0.2,0-0.3,0c-0.3,0-0.6,0.1-0.8,0.4
		c-0.2,0.2-0.5,0.6-0.8,1.2h-1.3V29.7z"/>
</g>
</svg>
