<svg xmlns="http://www.w3.org/2000/svg" viewBox="0 0 298.64 62.88"><defs><style>.a{fill:aqua;}</style></defs><path class="a" d="M87.66.82V14H95v9.75H87.66V36.09A6.71,6.71,0,0,0,88.08,39a2.44,2.44,0,0,0,2.29,1.11,14.49,14.49,0,0,0,4.13-.85l1,9.19a43.4,43.4,0,0,1-9.23,1.08c-3.31,0-5.76-.42-7.33-1.27a7.76,7.76,0,0,1-3.48-3.87q-1.12-2.6-1.13-8.42V23.78H69.4V14h4.91V7.66Z"/><path class="a" d="M137.94,48.78H125.51V43.15a18.35,18.35,0,0,1-5.61,4.94,15,15,0,0,1-7,1.47c-3.67,0-6.54-1.09-8.62-3.29s-3.13-5.56-3.13-10.12V14h13.38V33.14c0,2.18.41,3.73,1.21,4.65a4.32,4.32,0,0,0,3.41,1.37,4.87,4.87,0,0,0,3.91-1.83c1-1.22,1.52-3.42,1.52-6.58V14h13.31Z"/><path class="a" d="M146,14h12.4v5.66a18.36,18.36,0,0,1,5.63-5A14.85,14.85,0,0,1,171,13.25c3.69,0,6.57,1.1,8.66,3.29s3.12,5.58,3.12,10.16V48.78H169.38V29.67c0-2.18-.4-3.72-1.21-4.63a4.33,4.33,0,0,0-3.4-1.35,4.84,4.84,0,0,0-3.93,1.83q-1.5,1.83-1.5,6.57V48.78H146Z"/><path class="a" d="M229.28,34.71H202.59a8.6,8.6,0,0,0,1.73,4.78,6.33,6.33,0,0,0,5,2.25,7.51,7.51,0,0,0,3.73-1,8.65,8.65,0,0,0,2.32-2.19l13.12,1.21a18.87,18.87,0,0,1-7.26,7.51q-4.26,2.26-12.21,2.27-6.9,0-10.86-1.94a16,16,0,0,1-6.56-6.19,18.67,18.67,0,0,1-2.6-10q0-8.14,5.22-13.18t14.41-5q7.46,0,11.78,2.26A15.15,15.15,0,0,1,227,22.05q2.26,4.29,2.26,11.16Zm-13.54-6.38c-.26-2.57-1-4.42-2.08-5.53a6.51,6.51,0,0,0-9.5.85,9.24,9.24,0,0,0-1.54,4.68Z"/><path class="a" d="M250.22,14h6.35v9.75h-6.35v25H236.87v-25h-5V14h5V12.46a26.19,26.19,0,0,1,.46-4.67,9.32,9.32,0,0,1,1.72-4.18A8.87,8.87,0,0,1,242.58,1a17.11,17.11,0,0,1,6.66-1,89.6,89.6,0,0,1,10.17.82l-1.47,8a24.08,24.08,0,0,0-3.86-.4,4.35,4.35,0,0,0-2.59.61A3.35,3.35,0,0,0,250.38,11,17.44,17.44,0,0,0,250.22,14Z"/><path class="a" d="M257.64,14h14.05l7.17,23.13L285.52,14h13.12L284.85,51.16q-2.36,6.35-4.8,8.57-3.48,3.15-10.57,3.15a75,75,0,0,1-8.89-.79l-1-9.29a21.12,21.12,0,0,0,6.41.92,6.23,6.23,0,0,0,3.81-1.08,8.13,8.13,0,0,0,2.46-3.87Z"/><path class="a" d="M2.05,53.07a9.09,9.09,0,0,0,7.07,3.38H46.76a9.15,9.15,0,0,0,9.12-9.12V9.7a9.84,9.84,0,0,0-.07-1.1Z"/><path class="a" d="M51.34,1.83A9,9,0,0,0,46.76.58H9.12A9.14,9.14,0,0,0,0,9.7V44.3l19.36-16Z"/></svg>