<?xml version="1.0" encoding="utf-8"?>
<!-- Generator: Adobe Illustrator 25.2.1, SVG Export Plug-In . SVG Version: 6.00 Build 0)  -->
<svg version="1.1" id="Layer_1" xmlns="http://www.w3.org/2000/svg" xmlns:xlink="http://www.w3.org/1999/xlink" x="0px" y="0px"
	 viewBox="0 0 321.8 58.1" style="enable-background:new 0 0 321.8 58.1;" xml:space="preserve">
<style type="text/css">
	.st0{fill:#00FFFF;}
	.st1{fill:#2EAD14;}
	.st2{fill:#4553DB;}
	.st3{fill:#FFFFFF;}
	.st4{fill:#E54829;}
</style>
<g>
	<g>
		<path class="st4" d="M20,28.5l3.6-10.2c1-2.9,2.1-5.9,3.3-9.1C28.1,6,29.2,3,30.1,0.2H40L23.9,45h-7.9L0,0.2h9.9L20,28.5z"/>
		<path class="st4" d="M65.8,29.2c0,2.3-0.3,4.4-0.9,6.3c-0.6,2-1.6,3.7-2.8,5.2c-1.3,1.5-2.8,2.6-4.7,3.5c-1.9,0.8-4.1,1.2-6.7,1.2
			c-2.5,0-4.7-0.4-6.6-1.3c-1.9-0.9-3.4-2-4.7-3.5c-1.2-1.5-2.2-3.2-2.8-5.2c-0.6-2-1-4.1-1-6.4c0-2.3,0.3-4.4,1-6.4
			c0.6-2,1.6-3.7,2.8-5.2c1.2-1.5,2.8-2.6,4.7-3.5c1.9-0.8,4.1-1.2,6.6-1.2c2.6,0,4.8,0.4,6.7,1.3c1.9,0.9,3.5,2,4.7,3.5
			c1.3,1.5,2.2,3.2,2.8,5.2C65.5,24.7,65.8,26.9,65.8,29.2z M57.2,29.1c0-1.3-0.1-2.5-0.4-3.5c-0.2-1.1-0.6-2-1.1-2.8
			c-0.5-0.8-1.2-1.4-2-1.8s-1.8-0.7-3-0.7c-2.3,0-3.9,0.8-4.9,2.4c-1,1.6-1.5,3.7-1.5,6.3c0,1.2,0.1,2.4,0.4,3.5
			c0.2,1.1,0.6,2,1.1,2.8c0.5,0.8,1.2,1.4,2,1.9c0.8,0.4,1.8,0.7,2.9,0.7c2.3,0,4-0.8,5-2.5C56.7,33.7,57.2,31.6,57.2,29.1z"/>
		<path class="st4" d="M82.6,49.9c2,0,3.6-0.4,4.7-1.1c1.1-0.7,1.6-2,1.7-3.8c-0.6,0.1-1.2,0.2-1.8,0.2c-0.6,0.1-1.1,0.1-1.6,0.1
			c-2.1,0-4.2-0.3-6.2-0.9c-2-0.6-3.8-1.6-5.3-2.9c-1.5-1.3-2.8-3-3.7-5.1c-0.9-2-1.4-4.5-1.4-7.4c0-2.3,0.4-4.5,1.2-6.5
			c0.8-2,1.9-3.7,3.3-5.2c1.5-1.5,3.2-2.6,5.3-3.4c2.1-0.8,4.4-1.2,7-1.2c1.7,0,3.5,0.2,5.4,0.5c1.9,0.4,4,0.9,6.2,1.6v29.1
			c0,2.6-0.4,4.7-1.1,6.5c-0.7,1.8-1.8,3.3-3.1,4.4c-1.3,1.1-2.9,2-4.7,2.5c-1.8,0.5-3.8,0.8-6,0.8c-2.7,0-5.2-0.6-7.6-1.9
			c-2.3-1.2-4.5-2.9-6.5-5l5.7-6.1C76.8,48.3,79.7,49.9,82.6,49.9z M77.5,28.9c0,2.7,0.7,4.8,2.2,6.2c1.5,1.5,3.5,2.2,6.1,2.2
			c1.1,0,2.1-0.1,3.1-0.4V20.9c-0.6-0.1-1.1-0.2-1.8-0.2c-0.6,0-1.2,0-1.8,0c-2.5,0-4.4,0.8-5.8,2.3C78.2,24.4,77.5,26.4,77.5,28.9z
			"/>
		<path class="st4" d="M99.9,45V0.2h8.3V45H99.9z"/>
		<path class="st4" d="M138.6,40.1c-1.5,1.7-3.2,2.9-5.2,3.8c-2,0.9-4.4,1.3-7.1,1.3c-2.6,0-4.9-0.4-6.8-1.3
			c-1.9-0.9-3.5-2.1-4.8-3.6c-1.3-1.5-2.2-3.2-2.9-5.1c-0.6-1.9-1-3.9-1-6.1c0-2.8,0.4-5.3,1.2-7.3s1.8-3.8,3.2-5.2
			c1.3-1.4,2.9-2.4,4.7-3c1.8-0.7,3.7-1,5.7-1c4.8,0,8.4,1.6,10.8,4.9c2.4,3.3,3.6,8,3.6,14.2h-20.3c0.4,1.8,1.2,3.2,2.4,4.1
			c1.2,1,2.7,1.4,4.5,1.4c1.2,0,2.5-0.3,3.8-1c1.3-0.7,2.7-1.8,4.1-3.4l5.4,5.7L138.6,40.1z M125.4,20.4c-1.5,0-2.7,0.3-3.6,0.9
			c-0.9,0.6-1.5,1.5-1.9,2.7H131c-0.3-1.1-1-1.9-1.9-2.6C128.1,20.7,126.9,20.4,125.4,20.4z"/>
		<path class="st4" d="M168.6,12.2c-1-1.2-2.1-2.1-3.4-2.5c-1.3-0.4-2.7-0.7-4.4-0.7c-2,0-3.5,0.3-4.6,1c-1.1,0.7-1.7,1.5-1.7,2.5
			c0,0.6,0.3,1.1,0.8,1.6c0.6,0.5,1.2,1,2.1,1.4c0.8,0.4,1.7,0.8,2.8,1.2c1,0.4,2,0.8,2.9,1.1h-0.1c1.2,0.4,2.6,1,4.2,1.7
			c1.6,0.7,3.1,1.6,4.4,2.7c1.4,1.1,2.6,2.4,3.5,4c1,1.6,1.4,3.4,1.4,5.5c0,2.2-0.4,4.2-1.2,5.9c-0.8,1.7-2,3.1-3.5,4.3
			c-1.5,1.2-3.2,2-5.2,2.6c-2,0.6-4.1,0.9-6.4,0.9c-3.2,0-6.3-0.8-9.2-2.3c-2.9-1.5-5.9-3.9-8.8-7.2l7.4-6c1.6,2.2,3.3,3.8,5,4.9
			c1.8,1,3.7,1.5,5.7,1.5c2.1,0,3.9-0.4,5.2-1.1c1.4-0.7,2-1.6,2-2.7c0-0.8-0.3-1.5-0.9-2.1c-0.6-0.6-1.3-1.2-2.2-1.7
			c-0.9-0.5-1.9-1-2.9-1.3c-1.1-0.4-2.1-0.7-3.2-1.1l-1.3-0.5c-1.5-0.5-2.9-1.1-4.3-1.7c-1.4-0.6-2.7-1.4-3.8-2.3
			c-1.1-1-2-2.1-2.8-3.6c-0.7-1.4-1.1-3.2-1.1-5.2c0-1.7,0.3-3.3,0.9-4.8c0.6-1.6,1.5-2.9,2.7-4.1c1.2-1.2,2.8-2.1,4.7-2.8
			c1.9-0.7,4.2-1.1,7-1.1c3.1,0,6,0.6,8.7,1.9c2.8,1.3,5.5,3.6,8.3,6.9l-7.3,5.1L168.6,12.2z"/>
		<path class="st4" d="M208.1,40.1c-1.5,1.7-3.2,2.9-5.2,3.8c-2,0.9-4.4,1.3-7.1,1.3c-2.6,0-4.9-0.4-6.8-1.3
			c-1.9-0.9-3.5-2.1-4.8-3.6c-1.3-1.5-2.2-3.2-2.9-5.1c-0.6-1.9-1-3.9-1-6.1c0-2.8,0.4-5.3,1.2-7.3s1.8-3.8,3.2-5.2
			c1.3-1.4,2.9-2.4,4.7-3c1.8-0.7,3.7-1,5.7-1c4.8,0,8.4,1.6,10.8,4.9c2.4,3.3,3.6,8,3.6,14.2h-20.3c0.4,1.8,1.2,3.2,2.4,4.1
			c1.2,1,2.7,1.4,4.5,1.4c1.2,0,2.5-0.3,3.8-1c1.3-0.7,2.7-1.8,4.1-3.4l5.4,5.7L208.1,40.1z M194.9,20.4c-1.5,0-2.7,0.3-3.6,0.9
			c-0.9,0.6-1.5,1.5-1.9,2.7h11.1c-0.3-1.1-1-1.9-1.9-2.6C197.7,20.7,196.4,20.4,194.9,20.4z"/>
		<path class="st4" d="M230.5,45v-0.6c-1,0.4-2.1,0.7-3.3,0.8c-1.2,0.1-2.3,0.2-3.6,0.2c-1.7,0-3.2-0.2-4.6-0.6
			c-1.4-0.4-2.7-1.1-3.7-1.9c-1.1-0.9-1.9-1.9-2.5-3.2c-0.6-1.3-0.9-2.7-0.9-4.4c0-1.9,0.4-3.5,1.1-5c0.7-1.4,1.6-2.6,2.8-3.6
			c1.2-1,2.5-1.7,4.1-2.1c1.6-0.5,3.2-0.7,4.9-0.7c1,0,2,0,2.9,0c0.9,0,1.8,0.1,2.8,0.4c-0.4-2.3-2-3.5-5-3.5
			c-1.1,0-2.1,0.2-3.1,0.7c-0.9,0.5-2.1,1.5-3.4,3.2l-6.1-5.4c1.9-2.2,3.9-3.9,5.9-4.9c2-1.1,4.3-1.6,6.8-1.6c2,0,3.8,0.3,5.4,0.8
			c1.6,0.5,3,1.3,4.2,2.2c1.2,1,2.1,2.2,2.7,3.7c0.6,1.5,1,3.2,1,5.1V45H230.5z M230.5,32.5c-0.8-0.2-1.6-0.4-2.4-0.4
			c-0.9-0.1-1.7-0.1-2.6-0.1c-0.6,0-1.3,0.1-1.9,0.2c-0.6,0.1-1.2,0.3-1.7,0.5c-0.5,0.2-0.9,0.6-1.2,1c-0.3,0.4-0.4,0.9-0.4,1.5
			c0,0.8,0.4,1.3,1.1,1.7c0.7,0.4,1.8,0.6,3.1,0.6c1.2,0,2.3-0.2,3.4-0.6c1-0.4,1.9-1.1,2.7-2V32.5z"/>
		<path class="st4" d="M260.8,22c-1.1-0.4-2.1-0.8-3-1c-0.9-0.3-1.6-0.4-2-0.4c-0.7,0-1.4,0.1-2.1,0.4c-0.7,0.3-1.3,0.6-1.9,1.1
			c-0.6,0.4-1,0.9-1.3,1.4c-0.3,0.5-0.5,1-0.5,1.4V45h-8.4V13h8.4v1.1c1.9-1.1,4.1-1.6,6.7-1.6c0.6,0,1.5,0.1,2.7,0.3
			c1.2,0.2,2.4,0.4,3.8,0.8L260.8,22z"/>
		<path class="st4" d="M290.2,40.3c-1.5,1.5-3.1,2.7-5,3.6c-1.9,0.9-4.2,1.3-7,1.3c-2.6,0-4.9-0.5-6.8-1.4c-1.9-0.9-3.5-2.1-4.7-3.6
			c-1.2-1.5-2.2-3.3-2.8-5.2c-0.6-2-0.9-4-0.9-6.1c0-2.3,0.3-4.4,1-6.4c0.6-2,1.6-3.7,2.9-5.2c1.3-1.5,2.9-2.6,4.7-3.5
			c1.9-0.8,4.1-1.2,6.5-1.2c2.6,0,5,0.6,7.2,1.9c2.2,1.2,4.2,2.9,6.1,5l-5.8,5.6c-1.2-1.4-2.5-2.5-3.7-3.3c-1.2-0.8-2.4-1.2-3.7-1.2
			c-1.2,0-2.3,0.2-3.1,0.7c-0.9,0.4-1.6,1-2.1,1.8c-0.6,0.7-1,1.6-1.2,2.6c-0.2,1-0.4,2-0.4,3.1s0.1,2.2,0.4,3.2
			c0.3,1,0.7,1.9,1.2,2.7c0.6,0.8,1.3,1.4,2.1,1.9c0.9,0.5,1.9,0.7,3.1,0.7c1.2,0,2.5-0.4,3.9-1.1c1.3-0.7,2.7-1.9,4.1-3.6l5.2,5.7
			L290.2,40.3z"/>
		<path class="st4" d="M313.4,45V25.2c0-1.6-0.5-2.7-1.4-3.5c-0.9-0.7-2.1-1.1-3.4-1.1c-0.7,0-1.3,0.2-1.9,0.4
			c-0.6,0.3-1.1,0.7-1.6,1.1c-0.5,0.4-0.9,0.9-1.3,1.5c-0.4,0.5-0.8,1.1-1.1,1.6V45h-8.4V0.2h8.4V14c0.9-0.5,2-0.8,3.1-1.1
			c1.1-0.3,2.4-0.4,3.7-0.4c1.7,0,3.3,0.3,4.8,0.8c1.5,0.5,2.8,1.3,3.9,2.3c1.1,1,2,2.2,2.7,3.7c0.6,1.5,1,3.2,1,5.2V45H313.4z"/>
	</g>
	<rect x="60.4" y="44.1" transform="matrix(0.866 -0.5 0.5 0.866 -16.9578 38.2781)" class="st4" width="5.1" height="13.3"/>
</g>
</svg>
